<?xml version="1.0" encoding="UTF-8"?>
<!DOCTYPE svg PUBLIC "-//W3C//DTD SVG 1.1//EN" "http://www.w3.org/Graphics/SVG/1.1/DTD/svg11.dtd">
<svg xmlns="http://www.w3.org/2000/svg" version="1.1" width="311px" height="308px" style="shape-rendering:geometricPrecision; text-rendering:geometricPrecision; image-rendering:optimizeQuality; fill-rule:evenodd; clip-rule:evenodd" xmlns:xlink="http://www.w3.org/1999/xlink">
<g><path style="opacity:1" fill="#021238" d="M -0.5,-0.5 C 103.167,-0.5 206.833,-0.5 310.5,-0.5C 310.5,102.167 310.5,204.833 310.5,307.5C 206.833,307.5 103.167,307.5 -0.5,307.5C -0.5,204.833 -0.5,102.167 -0.5,-0.5 Z"/></g>
<g><path style="opacity:1" fill="#3a5cd3" d="M 133.5,68.5 C 133.309,71.2513 132.976,74.0847 132.5,77C 132.482,79.4418 133.149,81.6085 134.5,83.5C 126.222,78.0837 122.222,80.417 122.5,90.5C 122.5,91.1667 122.5,91.8333 122.5,92.5C 122.488,97.3435 122.155,102.343 121.5,107.5C 119.098,105.091 116.431,103.091 113.5,101.5C 111.833,98.1667 110.167,94.8333 108.5,91.5C 108.269,87.007 108.936,82.6737 110.5,78.5C 115.371,68.8468 123.037,65.5134 133.5,68.5 Z"/></g>
<g><path style="opacity:1" fill="#6436db" d="M 186.5,68.5 C 184.833,68.5 183.167,68.5 181.5,68.5C 181.5,72.5 181.5,76.5 181.5,80.5C 179.345,80.372 177.345,80.872 175.5,82C 172.964,84.705 170.297,87.205 167.5,89.5C 166.06,88.0539 165.393,86.2206 165.5,84C 165.633,80.5733 165.967,77.0733 166.5,73.5C 170.166,69.024 174.999,67.024 181,67.5C 183.033,67.5056 184.866,67.8389 186.5,68.5 Z"/></g>
<g><path style="opacity:1" fill="#4c4ad8" d="M 133.5,68.5 C 136.016,68.7553 138.35,69.5886 140.5,71C 144.37,74.7023 148.037,78.5357 151.5,82.5C 150.711,82.7828 150.044,83.2828 149.5,84C 150.416,88.6912 150.75,93.5246 150.5,98.5C 145.167,93.5 139.833,88.5 134.5,83.5C 133.149,81.6085 132.482,79.4418 132.5,77C 132.976,74.0847 133.309,71.2513 133.5,68.5 Z"/></g>
<g><path style="opacity:1" fill="#5a3fda" d="M 166.5,73.5 C 165.967,77.0733 165.633,80.5733 165.5,84C 165.393,86.2206 166.06,88.0539 167.5,89.5C 166.315,90.8566 165.315,92.3566 164.5,94C 165.315,95.6434 166.315,97.1434 167.5,98.5C 166.12,98.9623 165.453,99.9623 165.5,101.5C 165.581,105.551 165.581,109.551 165.5,113.5C 160.167,108.833 155.167,103.833 150.5,98.5C 150.75,93.5246 150.416,88.6912 149.5,84C 150.044,83.2828 150.711,82.7828 151.5,82.5C 152.482,83.1408 153.482,83.8075 154.5,84.5C 157.915,80.0802 161.915,76.4136 166.5,73.5 Z"/></g>
<g><path style="opacity:1" fill="#0b1940" d="M 134.5,83.5 C 139.833,88.5 145.167,93.5 150.5,98.5C 155.167,103.833 160.167,108.833 165.5,113.5C 172.145,120.48 178.812,127.48 185.5,134.5C 182.683,137.818 179.683,140.985 176.5,144C 175.563,144.692 174.897,144.525 174.5,143.5C 170.167,138.5 165.5,133.833 160.5,129.5C 155.167,123.5 149.5,117.833 143.5,112.5C 141.5,110.167 139.5,107.833 137.5,105.5C 132.833,100.167 127.833,95.1667 122.5,90.5C 122.222,80.417 126.222,78.0837 134.5,83.5 Z"/></g>
<g><path style="opacity:1" fill="#131d46" d="M 181.5,80.5 C 187.373,82.3535 188.873,86.0201 186,91.5C 181.985,95.6821 177.818,99.6821 173.5,103.5C 171.481,101.81 169.481,100.144 167.5,98.5C 166.315,97.1434 165.315,95.6434 164.5,94C 165.315,92.3566 166.315,90.8566 167.5,89.5C 170.297,87.205 172.964,84.705 175.5,82C 177.345,80.872 179.345,80.372 181.5,80.5 Z"/></g>
<g><path style="opacity:1" fill="#37466c" d="M 110.5,78.5 C 108.936,82.6737 108.269,87.007 108.5,91.5C 107.362,88.6965 107.195,85.6965 108,82.5C 108.2,80.6803 109.034,79.347 110.5,78.5 Z"/></g>
<g><path style="opacity:1" fill="#3f406d" d="M 198.5,78.5 C 199.966,79.347 200.8,80.6803 201,82.5C 201.805,85.6965 201.638,88.6965 200.5,91.5C 200.731,87.007 200.064,82.6737 198.5,78.5 Z"/></g>
<g><path style="opacity:1" fill="#5662a9" d="M 122.5,90.5 C 127.833,95.1667 132.833,100.167 137.5,105.5C 134.569,103.909 131.902,101.909 129.5,99.5C 127.5,96.8333 125.167,94.5 122.5,92.5C 122.5,91.8333 122.5,91.1667 122.5,90.5 Z"/></g>
<g><path style="opacity:1" fill="#3c56d6" d="M 122.5,92.5 C 125.167,94.5 127.5,96.8333 129.5,99.5C 129.579,106.743 129.245,113.91 128.5,121C 129.109,122.948 129.776,124.782 130.5,126.5C 129.167,128.5 127.5,130.167 125.5,131.5C 124.511,126.025 124.178,120.358 124.5,114.5C 125.573,113.749 125.74,112.749 125,111.5C 123.624,110.295 122.458,108.962 121.5,107.5C 122.155,102.343 122.488,97.3435 122.5,92.5 Z"/></g>
<g><path style="opacity:1" fill="#5366a8" d="M 113.5,101.5 C 116.431,103.091 119.098,105.091 121.5,107.5C 122.458,108.962 123.624,110.295 125,111.5C 125.74,112.749 125.573,113.749 124.5,114.5C 121.232,109.893 117.565,105.559 113.5,101.5 Z"/></g>
<g><path style="opacity:1" fill="#4850d7" d="M 129.5,99.5 C 131.902,101.909 134.569,103.909 137.5,105.5C 139.5,107.833 141.5,110.167 143.5,112.5C 142.711,112.783 142.044,113.283 141.5,114C 141.54,119.157 141.873,124.324 142.5,129.5C 140.5,127.833 138.5,126.167 136.5,124.5C 136.265,123.903 135.765,123.57 135,123.5C 133.357,124.315 131.857,125.315 130.5,126.5C 129.776,124.782 129.109,122.948 128.5,121C 129.245,113.91 129.579,106.743 129.5,99.5 Z"/></g>
<g><path style="opacity:1" fill="#2379cd" d="M 95.5,109.5 C 93.8008,109.34 92.1341,109.506 90.5,110C 91.1685,113.665 91.1685,117.498 90.5,121.5C 83.673,120.825 80.8397,123.825 82,130.5C 83.332,132.66 84.832,134.66 86.5,136.5C 85.1526,135.972 83.8193,135.805 82.5,136C 82.5,140 82.5,144 82.5,148C 83.8492,149.538 84.5159,151.371 84.5,153.5C 81.5,151.167 78.8333,148.5 76.5,145.5C 76.7142,134.393 76.7142,123.56 76.5,113C 77.7101,111.961 78.7101,110.794 79.5,109.5C 84.8492,106.904 90.1825,106.904 95.5,109.5 Z"/></g>
<g><path style="opacity:1" fill="#2f6ecb" d="M 95.5,109.5 C 97.7952,110.475 99.7952,111.808 101.5,113.5C 100.448,113.351 99.448,113.517 98.5,114C 99.8333,118.667 99.8333,123.333 98.5,128C 100.333,129.833 102.167,131.667 104,133.5C 104.692,134.437 104.525,135.103 103.5,135.5C 99.1386,130.807 94.8052,126.141 90.5,121.5C 91.1685,117.498 91.1685,113.665 90.5,110C 92.1341,109.506 93.8008,109.34 95.5,109.5 Z"/></g>
<g><path style="opacity:1" fill="#217eca" d="M 79.5,109.5 C 78.7101,110.794 77.7101,111.961 76.5,113C 76.7142,123.56 76.7142,134.393 76.5,145.5C 67.2458,137.9 65.0792,128.566 70,117.5C 72.3156,113.768 75.4823,111.101 79.5,109.5 Z"/></g>
<g><path style="opacity:1" fill="#2f67d2" d="M 101.5,113.5 C 105.298,116.796 108.964,120.296 112.5,124C 114.435,123.942 116.102,123.109 117.5,121.5C 116.765,124.062 115.431,126.228 113.5,128C 113.306,132.856 113.639,137.689 114.5,142.5C 112.748,144.246 111.415,146.246 110.5,148.5C 107.5,151.167 104.5,153.833 101.5,156.5C 100.448,156.649 99.448,156.483 98.5,156C 99.8333,151.333 99.8333,146.667 98.5,142C 100.141,140.871 101.141,139.371 101.5,137.5C 101.833,136.5 102.5,135.833 103.5,135.5C 104.525,135.103 104.692,134.437 104,133.5C 102.167,131.667 100.333,129.833 98.5,128C 99.8333,123.333 99.8333,118.667 98.5,114C 99.448,113.517 100.448,113.351 101.5,113.5 Z"/></g>
<g><path style="opacity:1" fill="#5148d8" d="M 143.5,112.5 C 149.5,117.833 155.167,123.5 160.5,129.5C 158.715,129.926 157.715,131.092 157.5,133C 158.833,135 158.833,137 157.5,139C 159.418,141.943 161.418,144.943 163.5,148C 162.944,148.383 162.611,148.883 162.5,149.5C 159.853,147.189 157.186,144.856 154.5,142.5C 150.813,145.855 147.147,149.189 143.5,152.5C 142.761,152.631 142.094,152.464 141.5,152C 141.179,146.649 141.513,141.149 142.5,135.5C 143.141,134.518 143.807,133.518 144.5,132.5C 143.807,131.482 143.141,130.482 142.5,129.5C 141.873,124.324 141.54,119.157 141.5,114C 142.044,113.283 142.711,112.783 143.5,112.5 Z"/></g>
<g><path style="opacity:1" fill="#6d2fdd" d="M 186.5,68.5 C 192.016,70.0159 196.016,73.3493 198.5,78.5C 200.064,82.6737 200.731,87.007 200.5,91.5C 199.287,94.6365 197.787,97.6365 196,100.5C 191.651,104.682 187.485,109.015 183.5,113.5C 185.856,116.186 188.189,118.853 190.5,121.5C 189.305,121.866 188.639,122.699 188.5,124C 189.098,131.171 189.098,138.504 188.5,146C 188.639,147.301 189.305,148.134 190.5,148.5C 185.5,154.167 180.167,159.5 174.5,164.5C 173.711,164.217 173.044,163.717 172.5,163C 172.5,157.667 172.5,152.333 172.5,147C 173.085,145.698 173.751,144.531 174.5,143.5C 174.897,144.525 175.563,144.692 176.5,144C 179.683,140.985 182.683,137.818 185.5,134.5C 178.812,127.48 172.145,120.48 165.5,113.5C 165.581,109.551 165.581,105.551 165.5,101.5C 165.453,99.9623 166.12,98.9623 167.5,98.5C 169.481,100.144 171.481,101.81 173.5,103.5C 177.818,99.6821 181.985,95.6821 186,91.5C 188.873,86.0201 187.373,82.3535 181.5,80.5C 181.5,76.5 181.5,72.5 181.5,68.5C 183.167,68.5 184.833,68.5 186.5,68.5 Z"/></g>
<g><path style="opacity:1" fill="#395dd4" d="M 124.5,114.5 C 124.178,120.358 124.511,126.025 125.5,131.5C 122.167,135.5 118.5,139.167 114.5,142.5C 113.639,137.689 113.306,132.856 113.5,128C 115.431,126.228 116.765,124.062 117.5,121.5C 119.5,118.833 121.833,116.5 124.5,114.5 Z"/></g>
<g><path style="opacity:1" fill="#06163c" d="M 90.5,121.5 C 94.8052,126.141 99.1386,130.807 103.5,135.5C 102.5,135.833 101.833,136.5 101.5,137.5C 99.1862,139.477 96.8528,141.477 94.5,143.5C 91.8136,141.144 89.147,138.811 86.5,136.5C 84.832,134.66 83.332,132.66 82,130.5C 80.8397,123.825 83.673,120.825 90.5,121.5 Z"/></g>
<g><path style="opacity:1" fill="#07163c" d="M 217.5,121.5 C 225.382,120.546 228.549,123.879 227,131.5C 222.297,136.035 217.797,140.702 213.5,145.5C 209.833,148.5 206.5,151.833 203.5,155.5C 193.14,165.194 183.14,175.194 173.5,185.5C 170.522,182.187 167.522,178.853 164.5,175.5C 167.855,171.813 171.189,168.147 174.5,164.5C 180.167,159.5 185.5,154.167 190.5,148.5C 199.833,139.833 208.833,130.833 217.5,121.5 Z"/></g>
<g><path style="opacity:1" fill="#7a24df" d="M 217.5,108.5 C 216.167,112.833 216.167,117.167 217.5,121.5C 208.833,130.833 199.833,139.833 190.5,148.5C 189.305,148.134 188.639,147.301 188.5,146C 189.098,138.504 189.098,131.171 188.5,124C 188.639,122.699 189.305,121.866 190.5,121.5C 191.627,122.122 192.627,122.955 193.5,124C 194.5,124.667 195.5,124.667 196.5,124C 200.5,120 204.5,116 208.5,112C 211.072,109.713 214.072,108.547 217.5,108.5 Z"/></g>
<g><path style="opacity:1" fill="#06163c" d="M 136.5,124.5 C 138.5,126.167 140.5,127.833 142.5,129.5C 143.141,130.482 143.807,131.482 144.5,132.5C 143.807,133.518 143.141,134.518 142.5,135.5C 138.833,138.5 135.5,141.833 132.5,145.5C 126.5,150.833 120.833,156.5 115.5,162.5C 111.14,166.194 107.14,170.194 103.5,174.5C 98.915,177.414 94.915,181.08 91.5,185.5C 89.2573,186.474 86.924,186.808 84.5,186.5C 83.0567,184.379 82.0567,182.046 81.5,179.5C 81.6667,178.5 81.8333,177.5 82,176.5C 83.7073,174.963 85.2073,173.296 86.5,171.5C 91.8333,166.833 96.8333,161.833 101.5,156.5C 104.5,153.833 107.5,151.167 110.5,148.5C 118.886,140.11 127.553,132.11 136.5,124.5 Z"/></g>
<g><path style="opacity:1" fill="#384670" d="M 136.5,124.5 C 127.553,132.11 118.886,140.11 110.5,148.5C 111.415,146.246 112.748,144.246 114.5,142.5C 118.5,139.167 122.167,135.5 125.5,131.5C 127.5,130.167 129.167,128.5 130.5,126.5C 131.857,125.315 133.357,124.315 135,123.5C 135.765,123.57 136.265,123.903 136.5,124.5 Z"/></g>
<g><path style="opacity:1" fill="#2673cf" d="M 86.5,136.5 C 89.147,138.811 91.8136,141.144 94.5,143.5C 96.8528,141.477 99.1862,139.477 101.5,137.5C 101.141,139.371 100.141,140.871 98.5,142C 99.8333,146.667 99.8333,151.333 98.5,156C 99.448,156.483 100.448,156.649 101.5,156.5C 96.8333,161.833 91.8333,166.833 86.5,171.5C 84.8967,171.688 83.5634,171.188 82.5,170C 82.5,166 82.5,162 82.5,158C 83.6872,156.981 84.6872,155.814 85.5,154.5C 85.3764,153.893 85.0431,153.56 84.5,153.5C 84.5159,151.371 83.8492,149.538 82.5,148C 82.5,144 82.5,140 82.5,136C 83.8193,135.805 85.1526,135.972 86.5,136.5 Z"/></g>
<g><path style="opacity:1" fill="#9016e2" d="M 217.5,108.5 C 231.204,107.379 239.204,113.546 241.5,127C 241.344,131.457 240.178,135.624 238,139.5C 233.867,144.634 229.367,149.468 224.5,154C 231.518,159.677 237.018,166.511 241,174.5C 242.258,191.408 234.425,199.741 217.5,199.5C 216.167,195.167 216.167,190.833 217.5,186.5C 225.382,187.454 228.549,184.121 227,176.5C 222.679,172.345 218.512,168.012 214.5,163.5C 213.817,163.863 213.15,164.196 212.5,164.5C 211.711,164.217 211.044,163.717 210.5,163C 211.833,159 211.833,155 210.5,151C 211.758,149.259 212.758,147.426 213.5,145.5C 217.797,140.702 222.297,136.035 227,131.5C 228.549,123.879 225.382,120.546 217.5,121.5C 216.167,117.167 216.167,112.833 217.5,108.5 Z"/></g>
<g><path style="opacity:1" fill="#494ed6" d="M 142.5,135.5 C 141.513,141.149 141.179,146.649 141.5,152C 142.094,152.464 142.761,152.631 143.5,152.5C 143.351,153.552 143.517,154.552 144,155.5C 146.372,157.703 148.539,160.037 150.5,162.5C 148.61,162.703 147.11,162.037 146,160.5C 143.827,163.277 143.327,163.11 144.5,160C 143.725,158.77 142.725,158.437 141.5,159C 142.114,160.13 142.114,161.463 141.5,163C 141.844,164.365 142.511,165.532 143.5,166.5C 140.924,167.883 141.258,168.717 144.5,169C 143.62,170.356 143.286,171.856 143.5,173.5C 140.167,170.833 137.167,167.833 134.5,164.5C 133.645,163.469 132.978,162.303 132.5,161C 132.827,155.856 132.827,150.689 132.5,145.5C 135.5,141.833 138.833,138.5 142.5,135.5 Z"/></g>
<g><path style="opacity:1" fill="#0d1a40" d="M 162.5,149.5 C 163.625,151.129 164.959,152.629 166.5,154C 163.629,156.703 160.962,159.536 158.5,162.5C 157.185,163.476 155.852,164.476 154.5,165.5C 153.148,164.476 151.815,163.476 150.5,162.5C 148.539,160.037 146.372,157.703 144,155.5C 143.517,154.552 143.351,153.552 143.5,152.5C 147.147,149.189 150.813,145.855 154.5,142.5C 157.186,144.856 159.853,147.189 162.5,149.5 Z"/></g>
<g><path style="opacity:1" fill="#811fe0" d="M 213.5,145.5 C 212.758,147.426 211.758,149.259 210.5,151C 211.833,155 211.833,159 210.5,163C 211.044,163.717 211.711,164.217 212.5,164.5C 210.038,167.464 207.371,170.297 204.5,173C 209.037,177.369 213.37,181.869 217.5,186.5C 216.167,190.833 216.167,195.167 217.5,199.5C 210.186,197.855 204.519,193.855 200.5,187.5C 201.263,186.732 202.263,186.232 203.5,186C 202.167,185.333 202.167,184.667 203.5,184C 201.616,183.784 199.949,183.117 198.5,182C 199.833,176 199.833,170 198.5,164C 199.949,162.883 201.616,162.216 203.5,162C 202.586,160.1 202.586,157.934 203.5,155.5C 206.5,151.833 209.833,148.5 213.5,145.5 Z"/></g>
<g><path style="opacity:1" fill="#5e3bda" d="M 160.5,129.5 C 165.5,133.833 170.167,138.5 174.5,143.5C 173.751,144.531 173.085,145.698 172.5,147C 172.5,152.333 172.5,157.667 172.5,163C 173.044,163.717 173.711,164.217 174.5,164.5C 171.189,168.147 167.855,171.813 164.5,175.5C 167.522,178.853 170.522,182.187 173.5,185.5C 172.898,191.402 172.898,197.402 173.5,203.5C 168.5,199.167 163.833,194.5 159.5,189.5C 159.918,188.778 160.584,188.278 161.5,188C 160.5,187.667 159.5,187.333 158.5,187C 158.833,186.667 159.167,186.333 159.5,186C 158.572,185.612 157.905,184.945 157.5,184C 158.421,177.539 158.421,171.205 157.5,165C 159.619,164.658 159.953,163.825 158.5,162.5C 160.962,159.536 163.629,156.703 166.5,154C 164.959,152.629 163.625,151.129 162.5,149.5C 162.611,148.883 162.944,148.383 163.5,148C 161.418,144.943 159.418,141.943 157.5,139C 158.833,137 158.833,135 157.5,133C 157.715,131.092 158.715,129.926 160.5,129.5 Z"/></g>
<g><path style="opacity:1" fill="#227bcb" d="M 84.5,153.5 C 85.0431,153.56 85.3764,153.893 85.5,154.5C 84.6872,155.814 83.6872,156.981 82.5,158C 82.5,162 82.5,166 82.5,170C 83.5634,171.188 84.8967,171.688 86.5,171.5C 85.2073,173.296 83.7073,174.963 82,176.5C 81.8333,177.5 81.6667,178.5 81.5,179.5C 82.0567,182.046 83.0567,184.379 84.5,186.5C 83.7109,186.783 83.0442,187.283 82.5,188C 82.6027,191.794 82.936,195.628 83.5,199.5C 79.8177,199.409 76.651,198.076 74,195.5C 66.5832,186.926 65.5832,177.593 71,167.5C 75.6758,162.991 80.1758,158.324 84.5,153.5 Z"/></g>
<g><path style="opacity:1" fill="#5445d8" d="M 150.5,162.5 C 151.815,163.476 153.148,164.476 154.5,165.5C 155.852,164.476 157.185,163.476 158.5,162.5C 159.953,163.825 159.619,164.658 157.5,165C 158.421,171.205 158.421,177.539 157.5,184C 157.905,184.945 158.572,185.612 159.5,186C 159.167,186.333 158.833,186.667 158.5,187C 159.5,187.333 160.5,187.667 161.5,188C 160.584,188.278 159.918,188.778 159.5,189.5C 153.833,184.5 148.5,179.167 143.5,173.5C 143.286,171.856 143.62,170.356 144.5,169C 141.258,168.717 140.924,167.883 143.5,166.5C 142.511,165.532 141.844,164.365 141.5,163C 142.114,161.463 142.114,160.13 141.5,159C 142.725,158.437 143.725,158.77 144.5,160C 143.327,163.11 143.827,163.277 146,160.5C 147.11,162.037 148.61,162.703 150.5,162.5 Z"/></g>
<g><path style="opacity:1" fill="#0c1a41" d="M 134.5,164.5 C 137.167,167.833 140.167,170.833 143.5,173.5C 148.5,179.167 153.833,184.5 159.5,189.5C 163.833,194.5 168.5,199.167 173.5,203.5C 177.797,208.298 182.297,212.965 187,217.5C 187.784,224.716 184.618,227.882 177.5,227C 174,224.331 170.667,221.498 167.5,218.5C 162.5,212.833 157.167,207.5 151.5,202.5C 145.5,195.833 139.167,189.5 132.5,183.5C 129.268,180.434 126.601,176.934 124.5,173C 126.815,168.842 130.149,166.009 134.5,164.5 Z"/></g>
<g><path style="opacity:1" fill="#0e1941" d="M 217.5,186.5 C 213.37,181.869 209.037,177.369 204.5,173C 207.371,170.297 210.038,167.464 212.5,164.5C 213.15,164.196 213.817,163.863 214.5,163.5C 218.512,168.012 222.679,172.345 227,176.5C 228.549,184.121 225.382,187.454 217.5,186.5 Z"/></g>
<g><path style="opacity:1" fill="#3067d2" d="M 115.5,162.5 C 116.764,164.902 116.097,166.402 113.5,167C 113.782,172.483 114.115,177.983 114.5,183.5C 109.558,187.103 104.892,191.103 100.5,195.5C 99.7109,195.217 99.0442,194.717 98.5,194C 99.8333,189.333 99.8333,184.667 98.5,180C 100.373,178.296 102.04,176.463 103.5,174.5C 107.14,170.194 111.14,166.194 115.5,162.5 Z"/></g>
<g><path style="opacity:1" fill="#2972cd" d="M 103.5,174.5 C 102.04,176.463 100.373,178.296 98.5,180C 99.8333,184.667 99.8333,189.333 98.5,194C 99.0442,194.717 99.7109,195.217 100.5,195.5C 98.0258,197.24 95.3591,198.74 92.5,200C 89.3035,200.805 86.3035,200.638 83.5,199.5C 82.936,195.628 82.6027,191.794 82.5,188C 83.0442,187.283 83.7109,186.783 84.5,186.5C 86.924,186.808 89.2573,186.474 91.5,185.5C 94.915,181.08 98.915,177.414 103.5,174.5 Z"/></g>
<g><path style="opacity:1" fill="#3e3d6f" d="M 196.5,184.5 C 192.5,187.5 188.5,190.5 184.5,193.5C 187.296,190.203 190.296,187.036 193.5,184C 194.749,183.26 195.749,183.427 196.5,184.5 Z"/></g>
<g><path style="opacity:1" fill="#4b4bd8" d="M 132.5,183.5 C 139.167,189.5 145.5,195.833 151.5,202.5C 150.711,202.783 150.044,203.283 149.5,204C 150.833,210.667 150.833,217.333 149.5,224C 150.044,224.717 150.711,225.217 151.5,225.5C 147.833,229.5 144.167,233.5 140.5,237.5C 138.5,238.167 136.5,238.833 134.5,239.5C 133.883,239.389 133.383,239.056 133,238.5C 132.791,235.179 132.624,232.012 132.5,229C 133.741,227.269 134.741,225.436 135.5,223.5C 138.318,220.181 141.318,217.015 144.5,214C 142.033,210.366 139.033,207.199 135.5,204.5C 133.814,205.857 132.148,207.19 130.5,208.5C 129.711,208.217 129.044,207.717 128.5,207C 129.555,199.973 129.555,192.973 128.5,186C 129.984,185.338 131.317,184.504 132.5,183.5 Z"/></g>
<g><path style="opacity:1" fill="#702ddd" d="M 203.5,155.5 C 202.586,157.934 202.586,160.1 203.5,162C 201.616,162.216 199.949,162.883 198.5,164C 199.833,170 199.833,176 198.5,182C 199.949,183.117 201.616,183.784 203.5,184C 202.167,184.667 202.167,185.333 203.5,186C 202.263,186.232 201.263,186.732 200.5,187.5C 199.167,186.5 197.833,185.5 196.5,184.5C 195.749,183.427 194.749,183.26 193.5,184C 190.296,187.036 187.296,190.203 184.5,193.5C 183.475,193.897 183.308,194.563 184,195.5C 188.333,199.833 192.667,204.167 197,208.5C 202.404,218.535 201.237,227.702 193.5,236C 187.771,240.01 181.438,241.344 174.5,240C 171.244,238.884 168.578,237.051 166.5,234.5C 165.75,229.678 165.417,225.011 165.5,220.5C 165.855,219.478 166.522,218.811 167.5,218.5C 170.667,221.498 174,224.331 177.5,227C 184.618,227.882 187.784,224.716 187,217.5C 182.297,212.965 177.797,208.298 173.5,203.5C 172.898,197.402 172.898,191.402 173.5,185.5C 183.14,175.194 193.14,165.194 203.5,155.5 Z"/></g>
<g><path style="opacity:1" fill="#3c5bd3" d="M 132.5,145.5 C 132.827,150.689 132.827,155.856 132.5,161C 132.978,162.303 133.645,163.469 134.5,164.5C 130.149,166.009 126.815,168.842 124.5,173C 126.601,176.934 129.268,180.434 132.5,183.5C 131.317,184.504 129.984,185.338 128.5,186C 129.555,192.973 129.555,199.973 128.5,207C 129.044,207.717 129.711,208.217 130.5,208.5C 128.205,211.297 125.705,213.964 123,216.5C 121.552,223.705 124.386,227.205 131.5,227C 132.705,225.624 134.038,224.458 135.5,223.5C 134.741,225.436 133.741,227.269 132.5,229C 132.624,232.012 132.791,235.179 133,238.5C 133.383,239.056 133.883,239.389 134.5,239.5C 134.5,240.167 134.167,240.5 133.5,240.5C 128.673,240.779 124.007,240.113 119.5,238.5C 117.251,237.92 115.585,236.587 114.5,234.5C 113.699,225.542 113.366,216.542 113.5,207.5C 117.428,203.233 121.428,198.9 125.5,194.5C 121.479,191.146 117.812,187.479 114.5,183.5C 114.115,177.983 113.782,172.483 113.5,167C 116.097,166.402 116.764,164.902 115.5,162.5C 120.833,156.5 126.5,150.833 132.5,145.5 Z"/></g>
<g><path style="opacity:1" fill="#0c1a40" d="M 135.5,223.5 C 134.038,224.458 132.705,225.624 131.5,227C 124.386,227.205 121.552,223.705 123,216.5C 125.705,213.964 128.205,211.297 130.5,208.5C 132.148,207.19 133.814,205.857 135.5,204.5C 139.033,207.199 142.033,210.366 144.5,214C 141.318,217.015 138.318,220.181 135.5,223.5 Z"/></g>
<g><path style="opacity:1" fill="#3b65cf" d="M 113.5,207.5 C 113.366,216.542 113.699,225.542 114.5,234.5C 109.893,230.867 107.893,226.034 108.5,220C 107.853,214.809 109.519,210.642 113.5,207.5 Z"/></g>
<g><path style="opacity:1" fill="#593eda" d="M 151.5,202.5 C 157.167,207.5 162.5,212.833 167.5,218.5C 166.522,218.811 165.855,219.478 165.5,220.5C 165.417,225.011 165.75,229.678 166.5,234.5C 163.167,231.5 159.833,228.5 156.5,225.5C 154.999,223.043 153.332,223.043 151.5,225.5C 150.711,225.217 150.044,224.717 149.5,224C 150.833,217.333 150.833,210.667 149.5,204C 150.044,203.283 150.711,202.783 151.5,202.5 Z"/></g>
<g><path style="opacity:1" fill="#38416e" d="M 156.5,225.5 C 155.448,225.351 154.448,225.517 153.5,226C 149.572,230.436 145.239,234.269 140.5,237.5C 144.167,233.5 147.833,229.5 151.5,225.5C 153.332,223.043 154.999,223.043 156.5,225.5 Z"/></g>
<g><path style="opacity:1" fill="#485582" d="M 119.5,238.5 C 124.007,240.113 128.673,240.779 133.5,240.5C 130.36,241.641 127.027,241.808 123.5,241C 121.68,240.8 120.347,239.966 119.5,238.5 Z"/></g>
</svg>
